<mxfile host="app.diagrams.net" agent="Mozilla/5.0 (Windows NT 10.0; Win64; x64) AppleWebKit/537.36 (KHTML, like Gecko) Chrome/131.0.0.0 Safari/537.36" version="25.0.3">
  <diagram name="第 1 页" id="XUbEhQ1bskCTZdBXs4Iz">
    <mxGraphModel dx="2603" dy="738" grid="1" gridSize="10" guides="1" tooltips="1" connect="1" arrows="1" fold="1" page="1" pageScale="1" pageWidth="1169" pageHeight="827" math="0" shadow="0">
      <root>
        <mxCell id="0" />
        <mxCell id="1" parent="0" />
        <mxCell id="D74TR6SnFDzBrUBwtWsB-1" value="" style="rounded=0;whiteSpace=wrap;html=1;fillColor=#f5f5f5;strokeColor=#666666;verticalAlign=middle;fontColor=#333333;" vertex="1" parent="1">
          <mxGeometry x="20" y="830" width="470" height="410" as="geometry" />
        </mxCell>
        <mxCell id="D74TR6SnFDzBrUBwtWsB-2" style="edgeStyle=orthogonalEdgeStyle;rounded=0;orthogonalLoop=1;jettySize=auto;html=1;fontSize=12;endArrow=classic;endFill=1;" edge="1" parent="1" source="D74TR6SnFDzBrUBwtWsB-173" target="D74TR6SnFDzBrUBwtWsB-158">
          <mxGeometry relative="1" as="geometry">
            <mxPoint x="410" y="1170" as="targetPoint" />
            <mxPoint x="480" y="1160" as="sourcePoint" />
            <Array as="points">
              <mxPoint x="450" y="1110" />
              <mxPoint x="270" y="1110" />
            </Array>
          </mxGeometry>
        </mxCell>
        <mxCell id="D74TR6SnFDzBrUBwtWsB-3" value="" style="rounded=0;whiteSpace=wrap;html=1;fillColor=#fff2cc;gradientColor=#ffd966;strokeColor=#d6b656;verticalAlign=middle;" vertex="1" parent="1">
          <mxGeometry x="260" y="1000" width="150" height="100" as="geometry" />
        </mxCell>
        <mxCell id="D74TR6SnFDzBrUBwtWsB-4" value="Board" style="swimlane;strokeColor=#6c8ebf;fontSize=14;fillColor=#dae8fc;" vertex="1" parent="1">
          <mxGeometry x="41" y="40" width="1032" height="550" as="geometry" />
        </mxCell>
        <mxCell id="D74TR6SnFDzBrUBwtWsB-5" value="Module / Chip" style="swimlane;strokeColor=#82b366;fontSize=14;fillColor=#d5e8d4;" vertex="1" parent="D74TR6SnFDzBrUBwtWsB-4">
          <mxGeometry x="19" y="40" width="461" height="490" as="geometry" />
        </mxCell>
        <mxCell id="D74TR6SnFDzBrUBwtWsB-6" value="Cluster" style="swimlane;strokeColor=#d79b00;fontSize=14;fillColor=#ffe6cc;" vertex="1" parent="D74TR6SnFDzBrUBwtWsB-5">
          <mxGeometry x="21" y="40" width="180" height="210" as="geometry" />
        </mxCell>
        <mxCell id="D74TR6SnFDzBrUBwtWsB-7" value="PE" style="whiteSpace=wrap;html=1;aspect=fixed;strokeColor=#b85450;fontSize=14;fillColor=#f8cecc;" vertex="1" parent="D74TR6SnFDzBrUBwtWsB-6">
          <mxGeometry x="10" y="40" width="35" height="35" as="geometry" />
        </mxCell>
        <mxCell id="D74TR6SnFDzBrUBwtWsB-8" value="PE" style="whiteSpace=wrap;html=1;aspect=fixed;strokeColor=#b85450;fontSize=14;fillColor=#f8cecc;" vertex="1" parent="D74TR6SnFDzBrUBwtWsB-6">
          <mxGeometry x="50" y="40" width="35" height="35" as="geometry" />
        </mxCell>
        <mxCell id="D74TR6SnFDzBrUBwtWsB-9" value="PE" style="whiteSpace=wrap;html=1;aspect=fixed;strokeColor=#b85450;fontSize=14;fillColor=#f8cecc;" vertex="1" parent="D74TR6SnFDzBrUBwtWsB-6">
          <mxGeometry x="130" y="40" width="35" height="35" as="geometry" />
        </mxCell>
        <mxCell id="D74TR6SnFDzBrUBwtWsB-10" value="PE" style="whiteSpace=wrap;html=1;aspect=fixed;strokeColor=#b85450;fontSize=14;fillColor=#f8cecc;" vertex="1" parent="D74TR6SnFDzBrUBwtWsB-6">
          <mxGeometry x="10" y="80" width="35" height="35" as="geometry" />
        </mxCell>
        <mxCell id="D74TR6SnFDzBrUBwtWsB-11" value="PE" style="whiteSpace=wrap;html=1;aspect=fixed;strokeColor=#b85450;fontSize=14;fillColor=#f8cecc;" vertex="1" parent="D74TR6SnFDzBrUBwtWsB-6">
          <mxGeometry x="50" y="80" width="35" height="35" as="geometry" />
        </mxCell>
        <mxCell id="D74TR6SnFDzBrUBwtWsB-12" value="PE" style="whiteSpace=wrap;html=1;aspect=fixed;strokeColor=#b85450;fontSize=14;fillColor=#f8cecc;" vertex="1" parent="D74TR6SnFDzBrUBwtWsB-6">
          <mxGeometry x="130" y="80" width="35" height="35" as="geometry" />
        </mxCell>
        <mxCell id="D74TR6SnFDzBrUBwtWsB-13" value="PE" style="whiteSpace=wrap;html=1;aspect=fixed;strokeColor=#b85450;fontSize=14;fillColor=#f8cecc;" vertex="1" parent="D74TR6SnFDzBrUBwtWsB-6">
          <mxGeometry x="10" y="160" width="35" height="35" as="geometry" />
        </mxCell>
        <mxCell id="D74TR6SnFDzBrUBwtWsB-14" value="PE" style="whiteSpace=wrap;html=1;aspect=fixed;strokeColor=#b85450;fontSize=14;fillColor=#f8cecc;" vertex="1" parent="D74TR6SnFDzBrUBwtWsB-6">
          <mxGeometry x="50" y="160" width="35" height="35" as="geometry" />
        </mxCell>
        <mxCell id="D74TR6SnFDzBrUBwtWsB-15" value="PE" style="whiteSpace=wrap;html=1;aspect=fixed;strokeColor=#b85450;fontSize=14;fillColor=#f8cecc;" vertex="1" parent="D74TR6SnFDzBrUBwtWsB-6">
          <mxGeometry x="130" y="160" width="35" height="35" as="geometry" />
        </mxCell>
        <mxCell id="D74TR6SnFDzBrUBwtWsB-16" value="。。。" style="text;html=1;strokeColor=none;fillColor=none;align=center;verticalAlign=middle;whiteSpace=wrap;rounded=0;fontSize=14;fontColor=#000000;" vertex="1" parent="D74TR6SnFDzBrUBwtWsB-6">
          <mxGeometry x="90" y="40" width="40" height="30" as="geometry" />
        </mxCell>
        <mxCell id="D74TR6SnFDzBrUBwtWsB-17" value="。。。" style="text;html=1;strokeColor=none;fillColor=none;align=center;verticalAlign=middle;whiteSpace=wrap;rounded=0;fontSize=14;fontColor=#000000;" vertex="1" parent="D74TR6SnFDzBrUBwtWsB-6">
          <mxGeometry x="89" y="76" width="40" height="30" as="geometry" />
        </mxCell>
        <mxCell id="D74TR6SnFDzBrUBwtWsB-18" value="。。。" style="text;html=1;strokeColor=none;fillColor=none;align=center;verticalAlign=middle;whiteSpace=wrap;rounded=0;fontSize=14;fontColor=#000000;" vertex="1" parent="D74TR6SnFDzBrUBwtWsB-6">
          <mxGeometry x="91" y="160" width="40" height="30" as="geometry" />
        </mxCell>
        <mxCell id="D74TR6SnFDzBrUBwtWsB-19" value="。。。" style="text;html=1;strokeColor=none;fillColor=none;align=center;verticalAlign=middle;whiteSpace=wrap;rounded=0;fontSize=14;fontColor=#000000;" vertex="1" parent="D74TR6SnFDzBrUBwtWsB-6">
          <mxGeometry x="26" y="119" width="40" height="30" as="geometry" />
        </mxCell>
        <mxCell id="D74TR6SnFDzBrUBwtWsB-20" value="。。。" style="text;html=1;strokeColor=none;fillColor=none;align=center;verticalAlign=middle;whiteSpace=wrap;rounded=0;fontSize=14;fontColor=#000000;" vertex="1" parent="D74TR6SnFDzBrUBwtWsB-6">
          <mxGeometry x="99" y="120" width="40" height="30" as="geometry" />
        </mxCell>
        <mxCell id="D74TR6SnFDzBrUBwtWsB-21" value="。。。" style="text;html=1;strokeColor=none;fillColor=none;align=center;verticalAlign=middle;whiteSpace=wrap;rounded=0;fontSize=14;fontColor=#000000;" vertex="1" parent="D74TR6SnFDzBrUBwtWsB-5">
          <mxGeometry x="210" y="130" width="40" height="30" as="geometry" />
        </mxCell>
        <mxCell id="D74TR6SnFDzBrUBwtWsB-22" value="。。。" style="text;html=1;strokeColor=none;fillColor=none;align=center;verticalAlign=middle;whiteSpace=wrap;rounded=0;fontSize=14;fontColor=#000000;" vertex="1" parent="D74TR6SnFDzBrUBwtWsB-5">
          <mxGeometry x="210" y="350" width="40" height="30" as="geometry" />
        </mxCell>
        <mxCell id="D74TR6SnFDzBrUBwtWsB-23" value="Cluster" style="swimlane;strokeColor=#d79b00;fontSize=14;fillColor=#ffe6cc;" vertex="1" parent="D74TR6SnFDzBrUBwtWsB-5">
          <mxGeometry x="260" y="40" width="180" height="210" as="geometry" />
        </mxCell>
        <mxCell id="D74TR6SnFDzBrUBwtWsB-24" value="PE" style="whiteSpace=wrap;html=1;aspect=fixed;strokeColor=#b85450;fontSize=14;fillColor=#f8cecc;" vertex="1" parent="D74TR6SnFDzBrUBwtWsB-23">
          <mxGeometry x="10" y="40" width="35" height="35" as="geometry" />
        </mxCell>
        <mxCell id="D74TR6SnFDzBrUBwtWsB-25" value="PE" style="whiteSpace=wrap;html=1;aspect=fixed;strokeColor=#b85450;fontSize=14;fillColor=#f8cecc;" vertex="1" parent="D74TR6SnFDzBrUBwtWsB-23">
          <mxGeometry x="50" y="40" width="35" height="35" as="geometry" />
        </mxCell>
        <mxCell id="D74TR6SnFDzBrUBwtWsB-26" value="PE" style="whiteSpace=wrap;html=1;aspect=fixed;strokeColor=#b85450;fontSize=14;fillColor=#f8cecc;" vertex="1" parent="D74TR6SnFDzBrUBwtWsB-23">
          <mxGeometry x="130" y="40" width="35" height="35" as="geometry" />
        </mxCell>
        <mxCell id="D74TR6SnFDzBrUBwtWsB-27" value="PE" style="whiteSpace=wrap;html=1;aspect=fixed;strokeColor=#b85450;fontSize=14;fillColor=#f8cecc;" vertex="1" parent="D74TR6SnFDzBrUBwtWsB-23">
          <mxGeometry x="10" y="80" width="35" height="35" as="geometry" />
        </mxCell>
        <mxCell id="D74TR6SnFDzBrUBwtWsB-28" value="PE" style="whiteSpace=wrap;html=1;aspect=fixed;strokeColor=#b85450;fontSize=14;fillColor=#f8cecc;" vertex="1" parent="D74TR6SnFDzBrUBwtWsB-23">
          <mxGeometry x="50" y="80" width="35" height="35" as="geometry" />
        </mxCell>
        <mxCell id="D74TR6SnFDzBrUBwtWsB-29" value="PE" style="whiteSpace=wrap;html=1;aspect=fixed;strokeColor=#b85450;fontSize=14;fillColor=#f8cecc;" vertex="1" parent="D74TR6SnFDzBrUBwtWsB-23">
          <mxGeometry x="130" y="80" width="35" height="35" as="geometry" />
        </mxCell>
        <mxCell id="D74TR6SnFDzBrUBwtWsB-30" value="PE" style="whiteSpace=wrap;html=1;aspect=fixed;strokeColor=#b85450;fontSize=14;fillColor=#f8cecc;" vertex="1" parent="D74TR6SnFDzBrUBwtWsB-23">
          <mxGeometry x="10" y="160" width="35" height="35" as="geometry" />
        </mxCell>
        <mxCell id="D74TR6SnFDzBrUBwtWsB-31" value="PE" style="whiteSpace=wrap;html=1;aspect=fixed;strokeColor=#b85450;fontSize=14;fillColor=#f8cecc;" vertex="1" parent="D74TR6SnFDzBrUBwtWsB-23">
          <mxGeometry x="50" y="160" width="35" height="35" as="geometry" />
        </mxCell>
        <mxCell id="D74TR6SnFDzBrUBwtWsB-32" value="PE" style="whiteSpace=wrap;html=1;aspect=fixed;strokeColor=#b85450;fontSize=14;fillColor=#f8cecc;" vertex="1" parent="D74TR6SnFDzBrUBwtWsB-23">
          <mxGeometry x="130" y="160" width="35" height="35" as="geometry" />
        </mxCell>
        <mxCell id="D74TR6SnFDzBrUBwtWsB-33" value="。。。" style="text;html=1;strokeColor=none;fillColor=none;align=center;verticalAlign=middle;whiteSpace=wrap;rounded=0;fontSize=14;fontColor=#000000;" vertex="1" parent="D74TR6SnFDzBrUBwtWsB-23">
          <mxGeometry x="90" y="40" width="40" height="30" as="geometry" />
        </mxCell>
        <mxCell id="D74TR6SnFDzBrUBwtWsB-34" value="。。。" style="text;html=1;strokeColor=none;fillColor=none;align=center;verticalAlign=middle;whiteSpace=wrap;rounded=0;fontSize=14;fontColor=#000000;" vertex="1" parent="D74TR6SnFDzBrUBwtWsB-23">
          <mxGeometry x="89" y="76" width="40" height="30" as="geometry" />
        </mxCell>
        <mxCell id="D74TR6SnFDzBrUBwtWsB-35" value="。。。" style="text;html=1;strokeColor=none;fillColor=none;align=center;verticalAlign=middle;whiteSpace=wrap;rounded=0;fontSize=14;fontColor=#000000;" vertex="1" parent="D74TR6SnFDzBrUBwtWsB-23">
          <mxGeometry x="91" y="160" width="40" height="30" as="geometry" />
        </mxCell>
        <mxCell id="D74TR6SnFDzBrUBwtWsB-36" value="。。。" style="text;html=1;strokeColor=none;fillColor=none;align=center;verticalAlign=middle;whiteSpace=wrap;rounded=0;fontSize=14;fontColor=#000000;" vertex="1" parent="D74TR6SnFDzBrUBwtWsB-23">
          <mxGeometry x="26" y="119" width="40" height="30" as="geometry" />
        </mxCell>
        <mxCell id="D74TR6SnFDzBrUBwtWsB-37" value="。。。" style="text;html=1;strokeColor=none;fillColor=none;align=center;verticalAlign=middle;whiteSpace=wrap;rounded=0;fontSize=14;fontColor=#000000;" vertex="1" parent="D74TR6SnFDzBrUBwtWsB-23">
          <mxGeometry x="99" y="120" width="40" height="30" as="geometry" />
        </mxCell>
        <mxCell id="D74TR6SnFDzBrUBwtWsB-38" value="Cluster" style="swimlane;strokeColor=#d79b00;fontSize=14;fillColor=#ffe6cc;" vertex="1" parent="D74TR6SnFDzBrUBwtWsB-5">
          <mxGeometry x="20" y="265" width="180" height="210" as="geometry" />
        </mxCell>
        <mxCell id="D74TR6SnFDzBrUBwtWsB-39" value="PE" style="whiteSpace=wrap;html=1;aspect=fixed;strokeColor=#b85450;fontSize=14;fillColor=#f8cecc;" vertex="1" parent="D74TR6SnFDzBrUBwtWsB-38">
          <mxGeometry x="10" y="40" width="35" height="35" as="geometry" />
        </mxCell>
        <mxCell id="D74TR6SnFDzBrUBwtWsB-40" value="PE" style="whiteSpace=wrap;html=1;aspect=fixed;strokeColor=#b85450;fontSize=14;fillColor=#f8cecc;" vertex="1" parent="D74TR6SnFDzBrUBwtWsB-38">
          <mxGeometry x="50" y="40" width="35" height="35" as="geometry" />
        </mxCell>
        <mxCell id="D74TR6SnFDzBrUBwtWsB-41" value="PE" style="whiteSpace=wrap;html=1;aspect=fixed;strokeColor=#b85450;fontSize=14;fillColor=#f8cecc;" vertex="1" parent="D74TR6SnFDzBrUBwtWsB-38">
          <mxGeometry x="130" y="40" width="35" height="35" as="geometry" />
        </mxCell>
        <mxCell id="D74TR6SnFDzBrUBwtWsB-42" value="PE" style="whiteSpace=wrap;html=1;aspect=fixed;strokeColor=#b85450;fontSize=14;fillColor=#f8cecc;" vertex="1" parent="D74TR6SnFDzBrUBwtWsB-38">
          <mxGeometry x="10" y="80" width="35" height="35" as="geometry" />
        </mxCell>
        <mxCell id="D74TR6SnFDzBrUBwtWsB-43" value="PE" style="whiteSpace=wrap;html=1;aspect=fixed;strokeColor=#b85450;fontSize=14;fillColor=#f8cecc;" vertex="1" parent="D74TR6SnFDzBrUBwtWsB-38">
          <mxGeometry x="50" y="80" width="35" height="35" as="geometry" />
        </mxCell>
        <mxCell id="D74TR6SnFDzBrUBwtWsB-44" value="PE" style="whiteSpace=wrap;html=1;aspect=fixed;strokeColor=#b85450;fontSize=14;fillColor=#f8cecc;" vertex="1" parent="D74TR6SnFDzBrUBwtWsB-38">
          <mxGeometry x="130" y="80" width="35" height="35" as="geometry" />
        </mxCell>
        <mxCell id="D74TR6SnFDzBrUBwtWsB-45" value="PE" style="whiteSpace=wrap;html=1;aspect=fixed;strokeColor=#b85450;fontSize=14;fillColor=#f8cecc;" vertex="1" parent="D74TR6SnFDzBrUBwtWsB-38">
          <mxGeometry x="10" y="160" width="35" height="35" as="geometry" />
        </mxCell>
        <mxCell id="D74TR6SnFDzBrUBwtWsB-46" value="PE" style="whiteSpace=wrap;html=1;aspect=fixed;strokeColor=#b85450;fontSize=14;fillColor=#f8cecc;" vertex="1" parent="D74TR6SnFDzBrUBwtWsB-38">
          <mxGeometry x="50" y="160" width="35" height="35" as="geometry" />
        </mxCell>
        <mxCell id="D74TR6SnFDzBrUBwtWsB-47" value="PE" style="whiteSpace=wrap;html=1;aspect=fixed;strokeColor=#b85450;fontSize=14;fillColor=#f8cecc;" vertex="1" parent="D74TR6SnFDzBrUBwtWsB-38">
          <mxGeometry x="130" y="160" width="35" height="35" as="geometry" />
        </mxCell>
        <mxCell id="D74TR6SnFDzBrUBwtWsB-48" value="。。。" style="text;html=1;strokeColor=none;fillColor=none;align=center;verticalAlign=middle;whiteSpace=wrap;rounded=0;fontSize=14;fontColor=#000000;" vertex="1" parent="D74TR6SnFDzBrUBwtWsB-38">
          <mxGeometry x="90" y="40" width="40" height="30" as="geometry" />
        </mxCell>
        <mxCell id="D74TR6SnFDzBrUBwtWsB-49" value="。。。" style="text;html=1;strokeColor=none;fillColor=none;align=center;verticalAlign=middle;whiteSpace=wrap;rounded=0;fontSize=14;fontColor=#000000;" vertex="1" parent="D74TR6SnFDzBrUBwtWsB-38">
          <mxGeometry x="89" y="76" width="40" height="30" as="geometry" />
        </mxCell>
        <mxCell id="D74TR6SnFDzBrUBwtWsB-50" value="。。。" style="text;html=1;strokeColor=none;fillColor=none;align=center;verticalAlign=middle;whiteSpace=wrap;rounded=0;fontSize=14;fontColor=#000000;" vertex="1" parent="D74TR6SnFDzBrUBwtWsB-38">
          <mxGeometry x="91" y="160" width="40" height="30" as="geometry" />
        </mxCell>
        <mxCell id="D74TR6SnFDzBrUBwtWsB-51" value="。。。" style="text;html=1;strokeColor=none;fillColor=none;align=center;verticalAlign=middle;whiteSpace=wrap;rounded=0;fontSize=14;fontColor=#000000;" vertex="1" parent="D74TR6SnFDzBrUBwtWsB-38">
          <mxGeometry x="26" y="119" width="40" height="30" as="geometry" />
        </mxCell>
        <mxCell id="D74TR6SnFDzBrUBwtWsB-52" value="。。。" style="text;html=1;strokeColor=none;fillColor=none;align=center;verticalAlign=middle;whiteSpace=wrap;rounded=0;fontSize=14;fontColor=#000000;" vertex="1" parent="D74TR6SnFDzBrUBwtWsB-38">
          <mxGeometry x="99" y="120" width="40" height="30" as="geometry" />
        </mxCell>
        <mxCell id="D74TR6SnFDzBrUBwtWsB-53" value="Cluster" style="swimlane;strokeColor=#d79b00;fontSize=14;fillColor=#ffe6cc;" vertex="1" parent="D74TR6SnFDzBrUBwtWsB-5">
          <mxGeometry x="259" y="265" width="180" height="210" as="geometry" />
        </mxCell>
        <mxCell id="D74TR6SnFDzBrUBwtWsB-54" value="PE" style="whiteSpace=wrap;html=1;aspect=fixed;strokeColor=#b85450;fontSize=14;fillColor=#f8cecc;" vertex="1" parent="D74TR6SnFDzBrUBwtWsB-53">
          <mxGeometry x="10" y="40" width="35" height="35" as="geometry" />
        </mxCell>
        <mxCell id="D74TR6SnFDzBrUBwtWsB-55" value="PE" style="whiteSpace=wrap;html=1;aspect=fixed;strokeColor=#b85450;fontSize=14;fillColor=#f8cecc;" vertex="1" parent="D74TR6SnFDzBrUBwtWsB-53">
          <mxGeometry x="50" y="40" width="35" height="35" as="geometry" />
        </mxCell>
        <mxCell id="D74TR6SnFDzBrUBwtWsB-56" value="PE" style="whiteSpace=wrap;html=1;aspect=fixed;strokeColor=#b85450;fontSize=14;fillColor=#f8cecc;" vertex="1" parent="D74TR6SnFDzBrUBwtWsB-53">
          <mxGeometry x="130" y="40" width="35" height="35" as="geometry" />
        </mxCell>
        <mxCell id="D74TR6SnFDzBrUBwtWsB-57" value="PE" style="whiteSpace=wrap;html=1;aspect=fixed;strokeColor=#b85450;fontSize=14;fillColor=#f8cecc;" vertex="1" parent="D74TR6SnFDzBrUBwtWsB-53">
          <mxGeometry x="10" y="80" width="35" height="35" as="geometry" />
        </mxCell>
        <mxCell id="D74TR6SnFDzBrUBwtWsB-58" value="PE" style="whiteSpace=wrap;html=1;aspect=fixed;strokeColor=#b85450;fontSize=14;fillColor=#f8cecc;" vertex="1" parent="D74TR6SnFDzBrUBwtWsB-53">
          <mxGeometry x="50" y="80" width="35" height="35" as="geometry" />
        </mxCell>
        <mxCell id="D74TR6SnFDzBrUBwtWsB-59" value="PE" style="whiteSpace=wrap;html=1;aspect=fixed;strokeColor=#b85450;fontSize=14;fillColor=#f8cecc;" vertex="1" parent="D74TR6SnFDzBrUBwtWsB-53">
          <mxGeometry x="130" y="80" width="35" height="35" as="geometry" />
        </mxCell>
        <mxCell id="D74TR6SnFDzBrUBwtWsB-60" value="PE" style="whiteSpace=wrap;html=1;aspect=fixed;strokeColor=#b85450;fontSize=14;fillColor=#f8cecc;" vertex="1" parent="D74TR6SnFDzBrUBwtWsB-53">
          <mxGeometry x="10" y="160" width="35" height="35" as="geometry" />
        </mxCell>
        <mxCell id="D74TR6SnFDzBrUBwtWsB-61" value="PE" style="whiteSpace=wrap;html=1;aspect=fixed;strokeColor=#b85450;fontSize=14;fillColor=#f8cecc;" vertex="1" parent="D74TR6SnFDzBrUBwtWsB-53">
          <mxGeometry x="50" y="160" width="35" height="35" as="geometry" />
        </mxCell>
        <mxCell id="D74TR6SnFDzBrUBwtWsB-62" value="PE" style="whiteSpace=wrap;html=1;aspect=fixed;strokeColor=#b85450;fontSize=14;fillColor=#f8cecc;" vertex="1" parent="D74TR6SnFDzBrUBwtWsB-53">
          <mxGeometry x="130" y="160" width="35" height="35" as="geometry" />
        </mxCell>
        <mxCell id="D74TR6SnFDzBrUBwtWsB-63" value="。。。" style="text;html=1;strokeColor=none;fillColor=none;align=center;verticalAlign=middle;whiteSpace=wrap;rounded=0;fontSize=14;fontColor=#000000;" vertex="1" parent="D74TR6SnFDzBrUBwtWsB-53">
          <mxGeometry x="90" y="40" width="40" height="30" as="geometry" />
        </mxCell>
        <mxCell id="D74TR6SnFDzBrUBwtWsB-64" value="。。。" style="text;html=1;strokeColor=none;fillColor=none;align=center;verticalAlign=middle;whiteSpace=wrap;rounded=0;fontSize=14;fontColor=#000000;" vertex="1" parent="D74TR6SnFDzBrUBwtWsB-53">
          <mxGeometry x="89" y="76" width="40" height="30" as="geometry" />
        </mxCell>
        <mxCell id="D74TR6SnFDzBrUBwtWsB-65" value="。。。" style="text;html=1;strokeColor=none;fillColor=none;align=center;verticalAlign=middle;whiteSpace=wrap;rounded=0;fontSize=14;fontColor=#000000;" vertex="1" parent="D74TR6SnFDzBrUBwtWsB-53">
          <mxGeometry x="91" y="160" width="40" height="30" as="geometry" />
        </mxCell>
        <mxCell id="D74TR6SnFDzBrUBwtWsB-66" value="。。。" style="text;html=1;strokeColor=none;fillColor=none;align=center;verticalAlign=middle;whiteSpace=wrap;rounded=0;fontSize=14;fontColor=#000000;" vertex="1" parent="D74TR6SnFDzBrUBwtWsB-53">
          <mxGeometry x="26" y="119" width="40" height="30" as="geometry" />
        </mxCell>
        <mxCell id="D74TR6SnFDzBrUBwtWsB-67" value="。。。" style="text;html=1;strokeColor=none;fillColor=none;align=center;verticalAlign=middle;whiteSpace=wrap;rounded=0;fontSize=14;fontColor=#000000;" vertex="1" parent="D74TR6SnFDzBrUBwtWsB-53">
          <mxGeometry x="99" y="120" width="40" height="30" as="geometry" />
        </mxCell>
        <mxCell id="D74TR6SnFDzBrUBwtWsB-68" value="。。。" style="text;html=1;strokeColor=none;fillColor=none;align=center;verticalAlign=middle;whiteSpace=wrap;rounded=0;fontSize=14;fontColor=#000000;" vertex="1" parent="D74TR6SnFDzBrUBwtWsB-4">
          <mxGeometry x="499" y="170" width="40" height="30" as="geometry" />
        </mxCell>
        <mxCell id="D74TR6SnFDzBrUBwtWsB-69" value="。。。" style="text;html=1;strokeColor=none;fillColor=none;align=center;verticalAlign=middle;whiteSpace=wrap;rounded=0;fontSize=14;fontColor=#000000;" vertex="1" parent="D74TR6SnFDzBrUBwtWsB-4">
          <mxGeometry x="499" y="380" width="40" height="30" as="geometry" />
        </mxCell>
        <mxCell id="D74TR6SnFDzBrUBwtWsB-70" value="Module / Chip" style="swimlane;strokeColor=#82b366;fontSize=14;fillColor=#d5e8d4;" vertex="1" parent="D74TR6SnFDzBrUBwtWsB-4">
          <mxGeometry x="549" y="41" width="461" height="490" as="geometry" />
        </mxCell>
        <mxCell id="D74TR6SnFDzBrUBwtWsB-71" value="Cluster" style="swimlane;strokeColor=#d79b00;fontSize=14;fillColor=#ffe6cc;" vertex="1" parent="D74TR6SnFDzBrUBwtWsB-70">
          <mxGeometry x="21" y="40" width="180" height="210" as="geometry" />
        </mxCell>
        <mxCell id="D74TR6SnFDzBrUBwtWsB-72" value="PE" style="whiteSpace=wrap;html=1;aspect=fixed;strokeColor=#b85450;fontSize=14;fillColor=#f8cecc;" vertex="1" parent="D74TR6SnFDzBrUBwtWsB-71">
          <mxGeometry x="10" y="40" width="35" height="35" as="geometry" />
        </mxCell>
        <mxCell id="D74TR6SnFDzBrUBwtWsB-73" value="PE" style="whiteSpace=wrap;html=1;aspect=fixed;strokeColor=#b85450;fontSize=14;fillColor=#f8cecc;" vertex="1" parent="D74TR6SnFDzBrUBwtWsB-71">
          <mxGeometry x="50" y="40" width="35" height="35" as="geometry" />
        </mxCell>
        <mxCell id="D74TR6SnFDzBrUBwtWsB-74" value="PE" style="whiteSpace=wrap;html=1;aspect=fixed;strokeColor=#b85450;fontSize=14;fillColor=#f8cecc;" vertex="1" parent="D74TR6SnFDzBrUBwtWsB-71">
          <mxGeometry x="130" y="40" width="35" height="35" as="geometry" />
        </mxCell>
        <mxCell id="D74TR6SnFDzBrUBwtWsB-75" value="PE" style="whiteSpace=wrap;html=1;aspect=fixed;strokeColor=#b85450;fontSize=14;fillColor=#f8cecc;" vertex="1" parent="D74TR6SnFDzBrUBwtWsB-71">
          <mxGeometry x="10" y="80" width="35" height="35" as="geometry" />
        </mxCell>
        <mxCell id="D74TR6SnFDzBrUBwtWsB-76" value="PE" style="whiteSpace=wrap;html=1;aspect=fixed;strokeColor=#b85450;fontSize=14;fillColor=#f8cecc;" vertex="1" parent="D74TR6SnFDzBrUBwtWsB-71">
          <mxGeometry x="50" y="80" width="35" height="35" as="geometry" />
        </mxCell>
        <mxCell id="D74TR6SnFDzBrUBwtWsB-77" value="PE" style="whiteSpace=wrap;html=1;aspect=fixed;strokeColor=#b85450;fontSize=14;fillColor=#f8cecc;" vertex="1" parent="D74TR6SnFDzBrUBwtWsB-71">
          <mxGeometry x="130" y="80" width="35" height="35" as="geometry" />
        </mxCell>
        <mxCell id="D74TR6SnFDzBrUBwtWsB-78" value="PE" style="whiteSpace=wrap;html=1;aspect=fixed;strokeColor=#b85450;fontSize=14;fillColor=#f8cecc;" vertex="1" parent="D74TR6SnFDzBrUBwtWsB-71">
          <mxGeometry x="10" y="160" width="35" height="35" as="geometry" />
        </mxCell>
        <mxCell id="D74TR6SnFDzBrUBwtWsB-79" value="PE" style="whiteSpace=wrap;html=1;aspect=fixed;strokeColor=#b85450;fontSize=14;fillColor=#f8cecc;" vertex="1" parent="D74TR6SnFDzBrUBwtWsB-71">
          <mxGeometry x="50" y="160" width="35" height="35" as="geometry" />
        </mxCell>
        <mxCell id="D74TR6SnFDzBrUBwtWsB-80" value="PE" style="whiteSpace=wrap;html=1;aspect=fixed;strokeColor=#b85450;fontSize=14;fillColor=#f8cecc;" vertex="1" parent="D74TR6SnFDzBrUBwtWsB-71">
          <mxGeometry x="130" y="160" width="35" height="35" as="geometry" />
        </mxCell>
        <mxCell id="D74TR6SnFDzBrUBwtWsB-81" value="。。。" style="text;html=1;strokeColor=none;fillColor=none;align=center;verticalAlign=middle;whiteSpace=wrap;rounded=0;fontSize=14;fontColor=#000000;" vertex="1" parent="D74TR6SnFDzBrUBwtWsB-71">
          <mxGeometry x="90" y="40" width="40" height="30" as="geometry" />
        </mxCell>
        <mxCell id="D74TR6SnFDzBrUBwtWsB-82" value="。。。" style="text;html=1;strokeColor=none;fillColor=none;align=center;verticalAlign=middle;whiteSpace=wrap;rounded=0;fontSize=14;fontColor=#000000;" vertex="1" parent="D74TR6SnFDzBrUBwtWsB-71">
          <mxGeometry x="89" y="76" width="40" height="30" as="geometry" />
        </mxCell>
        <mxCell id="D74TR6SnFDzBrUBwtWsB-83" value="。。。" style="text;html=1;strokeColor=none;fillColor=none;align=center;verticalAlign=middle;whiteSpace=wrap;rounded=0;fontSize=14;fontColor=#000000;" vertex="1" parent="D74TR6SnFDzBrUBwtWsB-71">
          <mxGeometry x="91" y="160" width="40" height="30" as="geometry" />
        </mxCell>
        <mxCell id="D74TR6SnFDzBrUBwtWsB-84" value="。。。" style="text;html=1;strokeColor=none;fillColor=none;align=center;verticalAlign=middle;whiteSpace=wrap;rounded=0;fontSize=14;fontColor=#000000;" vertex="1" parent="D74TR6SnFDzBrUBwtWsB-71">
          <mxGeometry x="26" y="119" width="40" height="30" as="geometry" />
        </mxCell>
        <mxCell id="D74TR6SnFDzBrUBwtWsB-85" value="。。。" style="text;html=1;strokeColor=none;fillColor=none;align=center;verticalAlign=middle;whiteSpace=wrap;rounded=0;fontSize=14;fontColor=#000000;" vertex="1" parent="D74TR6SnFDzBrUBwtWsB-71">
          <mxGeometry x="99" y="120" width="40" height="30" as="geometry" />
        </mxCell>
        <mxCell id="D74TR6SnFDzBrUBwtWsB-86" value="。。。" style="text;html=1;strokeColor=none;fillColor=none;align=center;verticalAlign=middle;whiteSpace=wrap;rounded=0;fontSize=14;fontColor=#000000;" vertex="1" parent="D74TR6SnFDzBrUBwtWsB-70">
          <mxGeometry x="210" y="130" width="40" height="30" as="geometry" />
        </mxCell>
        <mxCell id="D74TR6SnFDzBrUBwtWsB-87" value="。。。" style="text;html=1;strokeColor=none;fillColor=none;align=center;verticalAlign=middle;whiteSpace=wrap;rounded=0;fontSize=14;fontColor=#000000;" vertex="1" parent="D74TR6SnFDzBrUBwtWsB-70">
          <mxGeometry x="210" y="350" width="40" height="30" as="geometry" />
        </mxCell>
        <mxCell id="D74TR6SnFDzBrUBwtWsB-88" value="Cluster" style="swimlane;strokeColor=#d79b00;fontSize=14;fillColor=#ffe6cc;" vertex="1" parent="D74TR6SnFDzBrUBwtWsB-70">
          <mxGeometry x="260" y="40" width="180" height="210" as="geometry" />
        </mxCell>
        <mxCell id="D74TR6SnFDzBrUBwtWsB-89" value="PE" style="whiteSpace=wrap;html=1;aspect=fixed;strokeColor=#b85450;fontSize=14;fillColor=#f8cecc;" vertex="1" parent="D74TR6SnFDzBrUBwtWsB-88">
          <mxGeometry x="10" y="40" width="35" height="35" as="geometry" />
        </mxCell>
        <mxCell id="D74TR6SnFDzBrUBwtWsB-90" value="PE" style="whiteSpace=wrap;html=1;aspect=fixed;strokeColor=#b85450;fontSize=14;fillColor=#f8cecc;" vertex="1" parent="D74TR6SnFDzBrUBwtWsB-88">
          <mxGeometry x="50" y="40" width="35" height="35" as="geometry" />
        </mxCell>
        <mxCell id="D74TR6SnFDzBrUBwtWsB-91" value="PE" style="whiteSpace=wrap;html=1;aspect=fixed;strokeColor=#b85450;fontSize=14;fillColor=#f8cecc;" vertex="1" parent="D74TR6SnFDzBrUBwtWsB-88">
          <mxGeometry x="130" y="40" width="35" height="35" as="geometry" />
        </mxCell>
        <mxCell id="D74TR6SnFDzBrUBwtWsB-92" value="PE" style="whiteSpace=wrap;html=1;aspect=fixed;strokeColor=#b85450;fontSize=14;fillColor=#f8cecc;" vertex="1" parent="D74TR6SnFDzBrUBwtWsB-88">
          <mxGeometry x="10" y="80" width="35" height="35" as="geometry" />
        </mxCell>
        <mxCell id="D74TR6SnFDzBrUBwtWsB-93" value="PE" style="whiteSpace=wrap;html=1;aspect=fixed;strokeColor=#b85450;fontSize=14;fillColor=#f8cecc;" vertex="1" parent="D74TR6SnFDzBrUBwtWsB-88">
          <mxGeometry x="50" y="80" width="35" height="35" as="geometry" />
        </mxCell>
        <mxCell id="D74TR6SnFDzBrUBwtWsB-94" value="PE" style="whiteSpace=wrap;html=1;aspect=fixed;strokeColor=#b85450;fontSize=14;fillColor=#f8cecc;" vertex="1" parent="D74TR6SnFDzBrUBwtWsB-88">
          <mxGeometry x="130" y="80" width="35" height="35" as="geometry" />
        </mxCell>
        <mxCell id="D74TR6SnFDzBrUBwtWsB-95" value="PE" style="whiteSpace=wrap;html=1;aspect=fixed;strokeColor=#b85450;fontSize=14;fillColor=#f8cecc;" vertex="1" parent="D74TR6SnFDzBrUBwtWsB-88">
          <mxGeometry x="10" y="160" width="35" height="35" as="geometry" />
        </mxCell>
        <mxCell id="D74TR6SnFDzBrUBwtWsB-96" value="PE" style="whiteSpace=wrap;html=1;aspect=fixed;strokeColor=#b85450;fontSize=14;fillColor=#f8cecc;" vertex="1" parent="D74TR6SnFDzBrUBwtWsB-88">
          <mxGeometry x="50" y="160" width="35" height="35" as="geometry" />
        </mxCell>
        <mxCell id="D74TR6SnFDzBrUBwtWsB-97" value="PE" style="whiteSpace=wrap;html=1;aspect=fixed;strokeColor=#b85450;fontSize=14;fillColor=#f8cecc;" vertex="1" parent="D74TR6SnFDzBrUBwtWsB-88">
          <mxGeometry x="130" y="160" width="35" height="35" as="geometry" />
        </mxCell>
        <mxCell id="D74TR6SnFDzBrUBwtWsB-98" value="。。。" style="text;html=1;strokeColor=none;fillColor=none;align=center;verticalAlign=middle;whiteSpace=wrap;rounded=0;fontSize=14;fontColor=#000000;" vertex="1" parent="D74TR6SnFDzBrUBwtWsB-88">
          <mxGeometry x="90" y="40" width="40" height="30" as="geometry" />
        </mxCell>
        <mxCell id="D74TR6SnFDzBrUBwtWsB-99" value="。。。" style="text;html=1;strokeColor=none;fillColor=none;align=center;verticalAlign=middle;whiteSpace=wrap;rounded=0;fontSize=14;fontColor=#000000;" vertex="1" parent="D74TR6SnFDzBrUBwtWsB-88">
          <mxGeometry x="89" y="76" width="40" height="30" as="geometry" />
        </mxCell>
        <mxCell id="D74TR6SnFDzBrUBwtWsB-100" value="。。。" style="text;html=1;strokeColor=none;fillColor=none;align=center;verticalAlign=middle;whiteSpace=wrap;rounded=0;fontSize=14;fontColor=#000000;" vertex="1" parent="D74TR6SnFDzBrUBwtWsB-88">
          <mxGeometry x="91" y="160" width="40" height="30" as="geometry" />
        </mxCell>
        <mxCell id="D74TR6SnFDzBrUBwtWsB-101" value="。。。" style="text;html=1;strokeColor=none;fillColor=none;align=center;verticalAlign=middle;whiteSpace=wrap;rounded=0;fontSize=14;fontColor=#000000;" vertex="1" parent="D74TR6SnFDzBrUBwtWsB-88">
          <mxGeometry x="26" y="119" width="40" height="30" as="geometry" />
        </mxCell>
        <mxCell id="D74TR6SnFDzBrUBwtWsB-102" value="。。。" style="text;html=1;strokeColor=none;fillColor=none;align=center;verticalAlign=middle;whiteSpace=wrap;rounded=0;fontSize=14;fontColor=#000000;" vertex="1" parent="D74TR6SnFDzBrUBwtWsB-88">
          <mxGeometry x="99" y="120" width="40" height="30" as="geometry" />
        </mxCell>
        <mxCell id="D74TR6SnFDzBrUBwtWsB-103" value="Cluster" style="swimlane;strokeColor=#d79b00;fontSize=14;fillColor=#ffe6cc;" vertex="1" parent="D74TR6SnFDzBrUBwtWsB-70">
          <mxGeometry x="20" y="265" width="180" height="210" as="geometry" />
        </mxCell>
        <mxCell id="D74TR6SnFDzBrUBwtWsB-104" value="PE" style="whiteSpace=wrap;html=1;aspect=fixed;strokeColor=#b85450;fontSize=14;fillColor=#f8cecc;" vertex="1" parent="D74TR6SnFDzBrUBwtWsB-103">
          <mxGeometry x="10" y="40" width="35" height="35" as="geometry" />
        </mxCell>
        <mxCell id="D74TR6SnFDzBrUBwtWsB-105" value="PE" style="whiteSpace=wrap;html=1;aspect=fixed;strokeColor=#b85450;fontSize=14;fillColor=#f8cecc;" vertex="1" parent="D74TR6SnFDzBrUBwtWsB-103">
          <mxGeometry x="50" y="40" width="35" height="35" as="geometry" />
        </mxCell>
        <mxCell id="D74TR6SnFDzBrUBwtWsB-106" value="PE" style="whiteSpace=wrap;html=1;aspect=fixed;strokeColor=#b85450;fontSize=14;fillColor=#f8cecc;" vertex="1" parent="D74TR6SnFDzBrUBwtWsB-103">
          <mxGeometry x="130" y="40" width="35" height="35" as="geometry" />
        </mxCell>
        <mxCell id="D74TR6SnFDzBrUBwtWsB-107" value="PE" style="whiteSpace=wrap;html=1;aspect=fixed;strokeColor=#b85450;fontSize=14;fillColor=#f8cecc;" vertex="1" parent="D74TR6SnFDzBrUBwtWsB-103">
          <mxGeometry x="10" y="80" width="35" height="35" as="geometry" />
        </mxCell>
        <mxCell id="D74TR6SnFDzBrUBwtWsB-108" value="PE" style="whiteSpace=wrap;html=1;aspect=fixed;strokeColor=#b85450;fontSize=14;fillColor=#f8cecc;" vertex="1" parent="D74TR6SnFDzBrUBwtWsB-103">
          <mxGeometry x="50" y="80" width="35" height="35" as="geometry" />
        </mxCell>
        <mxCell id="D74TR6SnFDzBrUBwtWsB-109" value="PE" style="whiteSpace=wrap;html=1;aspect=fixed;strokeColor=#b85450;fontSize=14;fillColor=#f8cecc;" vertex="1" parent="D74TR6SnFDzBrUBwtWsB-103">
          <mxGeometry x="130" y="80" width="35" height="35" as="geometry" />
        </mxCell>
        <mxCell id="D74TR6SnFDzBrUBwtWsB-110" value="PE" style="whiteSpace=wrap;html=1;aspect=fixed;strokeColor=#b85450;fontSize=14;fillColor=#f8cecc;" vertex="1" parent="D74TR6SnFDzBrUBwtWsB-103">
          <mxGeometry x="10" y="160" width="35" height="35" as="geometry" />
        </mxCell>
        <mxCell id="D74TR6SnFDzBrUBwtWsB-111" value="PE" style="whiteSpace=wrap;html=1;aspect=fixed;strokeColor=#b85450;fontSize=14;fillColor=#f8cecc;" vertex="1" parent="D74TR6SnFDzBrUBwtWsB-103">
          <mxGeometry x="50" y="160" width="35" height="35" as="geometry" />
        </mxCell>
        <mxCell id="D74TR6SnFDzBrUBwtWsB-112" value="PE" style="whiteSpace=wrap;html=1;aspect=fixed;strokeColor=#b85450;fontSize=14;fillColor=#f8cecc;" vertex="1" parent="D74TR6SnFDzBrUBwtWsB-103">
          <mxGeometry x="130" y="160" width="35" height="35" as="geometry" />
        </mxCell>
        <mxCell id="D74TR6SnFDzBrUBwtWsB-113" value="。。。" style="text;html=1;strokeColor=none;fillColor=none;align=center;verticalAlign=middle;whiteSpace=wrap;rounded=0;fontSize=14;fontColor=#000000;" vertex="1" parent="D74TR6SnFDzBrUBwtWsB-103">
          <mxGeometry x="90" y="40" width="40" height="30" as="geometry" />
        </mxCell>
        <mxCell id="D74TR6SnFDzBrUBwtWsB-114" value="。。。" style="text;html=1;strokeColor=none;fillColor=none;align=center;verticalAlign=middle;whiteSpace=wrap;rounded=0;fontSize=14;fontColor=#000000;" vertex="1" parent="D74TR6SnFDzBrUBwtWsB-103">
          <mxGeometry x="89" y="76" width="40" height="30" as="geometry" />
        </mxCell>
        <mxCell id="D74TR6SnFDzBrUBwtWsB-115" value="。。。" style="text;html=1;strokeColor=none;fillColor=none;align=center;verticalAlign=middle;whiteSpace=wrap;rounded=0;fontSize=14;fontColor=#000000;" vertex="1" parent="D74TR6SnFDzBrUBwtWsB-103">
          <mxGeometry x="91" y="160" width="40" height="30" as="geometry" />
        </mxCell>
        <mxCell id="D74TR6SnFDzBrUBwtWsB-116" value="。。。" style="text;html=1;strokeColor=none;fillColor=none;align=center;verticalAlign=middle;whiteSpace=wrap;rounded=0;fontSize=14;fontColor=#000000;" vertex="1" parent="D74TR6SnFDzBrUBwtWsB-103">
          <mxGeometry x="26" y="119" width="40" height="30" as="geometry" />
        </mxCell>
        <mxCell id="D74TR6SnFDzBrUBwtWsB-117" value="。。。" style="text;html=1;strokeColor=none;fillColor=none;align=center;verticalAlign=middle;whiteSpace=wrap;rounded=0;fontSize=14;fontColor=#000000;" vertex="1" parent="D74TR6SnFDzBrUBwtWsB-103">
          <mxGeometry x="99" y="120" width="40" height="30" as="geometry" />
        </mxCell>
        <mxCell id="D74TR6SnFDzBrUBwtWsB-118" value="Cluster" style="swimlane;strokeColor=#d79b00;fontSize=14;fillColor=#ffe6cc;" vertex="1" parent="D74TR6SnFDzBrUBwtWsB-70">
          <mxGeometry x="259" y="265" width="180" height="210" as="geometry" />
        </mxCell>
        <mxCell id="D74TR6SnFDzBrUBwtWsB-119" value="PE" style="whiteSpace=wrap;html=1;aspect=fixed;strokeColor=#b85450;fontSize=14;fillColor=#f8cecc;" vertex="1" parent="D74TR6SnFDzBrUBwtWsB-118">
          <mxGeometry x="10" y="40" width="35" height="35" as="geometry" />
        </mxCell>
        <mxCell id="D74TR6SnFDzBrUBwtWsB-120" value="PE" style="whiteSpace=wrap;html=1;aspect=fixed;strokeColor=#b85450;fontSize=14;fillColor=#f8cecc;" vertex="1" parent="D74TR6SnFDzBrUBwtWsB-118">
          <mxGeometry x="50" y="40" width="35" height="35" as="geometry" />
        </mxCell>
        <mxCell id="D74TR6SnFDzBrUBwtWsB-121" value="PE" style="whiteSpace=wrap;html=1;aspect=fixed;strokeColor=#b85450;fontSize=14;fillColor=#f8cecc;" vertex="1" parent="D74TR6SnFDzBrUBwtWsB-118">
          <mxGeometry x="130" y="40" width="35" height="35" as="geometry" />
        </mxCell>
        <mxCell id="D74TR6SnFDzBrUBwtWsB-122" value="PE" style="whiteSpace=wrap;html=1;aspect=fixed;strokeColor=#b85450;fontSize=14;fillColor=#f8cecc;" vertex="1" parent="D74TR6SnFDzBrUBwtWsB-118">
          <mxGeometry x="10" y="80" width="35" height="35" as="geometry" />
        </mxCell>
        <mxCell id="D74TR6SnFDzBrUBwtWsB-123" value="PE" style="whiteSpace=wrap;html=1;aspect=fixed;strokeColor=#b85450;fontSize=14;fillColor=#f8cecc;" vertex="1" parent="D74TR6SnFDzBrUBwtWsB-118">
          <mxGeometry x="50" y="80" width="35" height="35" as="geometry" />
        </mxCell>
        <mxCell id="D74TR6SnFDzBrUBwtWsB-124" value="PE" style="whiteSpace=wrap;html=1;aspect=fixed;strokeColor=#b85450;fontSize=14;fillColor=#f8cecc;" vertex="1" parent="D74TR6SnFDzBrUBwtWsB-118">
          <mxGeometry x="130" y="80" width="35" height="35" as="geometry" />
        </mxCell>
        <mxCell id="D74TR6SnFDzBrUBwtWsB-125" value="PE" style="whiteSpace=wrap;html=1;aspect=fixed;strokeColor=#b85450;fontSize=14;fillColor=#f8cecc;" vertex="1" parent="D74TR6SnFDzBrUBwtWsB-118">
          <mxGeometry x="10" y="160" width="35" height="35" as="geometry" />
        </mxCell>
        <mxCell id="D74TR6SnFDzBrUBwtWsB-126" value="PE" style="whiteSpace=wrap;html=1;aspect=fixed;strokeColor=#b85450;fontSize=14;fillColor=#f8cecc;" vertex="1" parent="D74TR6SnFDzBrUBwtWsB-118">
          <mxGeometry x="50" y="160" width="35" height="35" as="geometry" />
        </mxCell>
        <mxCell id="D74TR6SnFDzBrUBwtWsB-127" value="PE" style="whiteSpace=wrap;html=1;aspect=fixed;strokeColor=#b85450;fontSize=14;fillColor=#f8cecc;" vertex="1" parent="D74TR6SnFDzBrUBwtWsB-118">
          <mxGeometry x="130" y="160" width="35" height="35" as="geometry" />
        </mxCell>
        <mxCell id="D74TR6SnFDzBrUBwtWsB-128" value="。。。" style="text;html=1;strokeColor=none;fillColor=none;align=center;verticalAlign=middle;whiteSpace=wrap;rounded=0;fontSize=14;fontColor=#000000;" vertex="1" parent="D74TR6SnFDzBrUBwtWsB-118">
          <mxGeometry x="90" y="40" width="40" height="30" as="geometry" />
        </mxCell>
        <mxCell id="D74TR6SnFDzBrUBwtWsB-129" value="。。。" style="text;html=1;strokeColor=none;fillColor=none;align=center;verticalAlign=middle;whiteSpace=wrap;rounded=0;fontSize=14;fontColor=#000000;" vertex="1" parent="D74TR6SnFDzBrUBwtWsB-118">
          <mxGeometry x="89" y="76" width="40" height="30" as="geometry" />
        </mxCell>
        <mxCell id="D74TR6SnFDzBrUBwtWsB-130" value="。。。" style="text;html=1;strokeColor=none;fillColor=none;align=center;verticalAlign=middle;whiteSpace=wrap;rounded=0;fontSize=14;fontColor=#000000;" vertex="1" parent="D74TR6SnFDzBrUBwtWsB-118">
          <mxGeometry x="91" y="160" width="40" height="30" as="geometry" />
        </mxCell>
        <mxCell id="D74TR6SnFDzBrUBwtWsB-131" value="。。。" style="text;html=1;strokeColor=none;fillColor=none;align=center;verticalAlign=middle;whiteSpace=wrap;rounded=0;fontSize=14;fontColor=#000000;" vertex="1" parent="D74TR6SnFDzBrUBwtWsB-118">
          <mxGeometry x="26" y="119" width="40" height="30" as="geometry" />
        </mxCell>
        <mxCell id="D74TR6SnFDzBrUBwtWsB-132" value="。。。" style="text;html=1;strokeColor=none;fillColor=none;align=center;verticalAlign=middle;whiteSpace=wrap;rounded=0;fontSize=14;fontColor=#000000;" vertex="1" parent="D74TR6SnFDzBrUBwtWsB-118">
          <mxGeometry x="99" y="120" width="40" height="30" as="geometry" />
        </mxCell>
        <mxCell id="D74TR6SnFDzBrUBwtWsB-133" style="edgeStyle=orthogonalEdgeStyle;shape=flexArrow;rounded=0;orthogonalLoop=1;jettySize=auto;html=1;exitX=0.5;exitY=1;exitDx=0;exitDy=0;fontSize=12;endArrow=classic;endFill=1;" edge="1" parent="1" source="D74TR6SnFDzBrUBwtWsB-136" target="D74TR6SnFDzBrUBwtWsB-158">
          <mxGeometry relative="1" as="geometry">
            <mxPoint x="91.09523809523807" y="1150" as="targetPoint" />
            <Array as="points">
              <mxPoint x="91" y="1075" />
              <mxPoint x="170" y="1075" />
            </Array>
          </mxGeometry>
        </mxCell>
        <mxCell id="D74TR6SnFDzBrUBwtWsB-134" style="edgeStyle=orthogonalEdgeStyle;rounded=0;orthogonalLoop=1;jettySize=auto;html=1;exitX=0.25;exitY=1;exitDx=0;exitDy=0;fontSize=12;endArrow=classic;endFill=1;" edge="1" parent="1" source="D74TR6SnFDzBrUBwtWsB-136" target="D74TR6SnFDzBrUBwtWsB-168">
          <mxGeometry relative="1" as="geometry">
            <mxPoint x="50" y="1100" as="targetPoint" />
            <Array as="points">
              <mxPoint x="66" y="1280" />
              <mxPoint x="160" y="1280" />
            </Array>
          </mxGeometry>
        </mxCell>
        <mxCell id="D74TR6SnFDzBrUBwtWsB-135" style="edgeStyle=orthogonalEdgeStyle;rounded=0;orthogonalLoop=1;jettySize=auto;html=1;fontSize=12;endArrow=classic;endFill=1;" edge="1" parent="1" source="D74TR6SnFDzBrUBwtWsB-136" target="D74TR6SnFDzBrUBwtWsB-198">
          <mxGeometry relative="1" as="geometry">
            <mxPoint x="170" y="930" as="targetPoint" />
            <Array as="points">
              <mxPoint x="150" y="875" />
              <mxPoint x="150" y="875" />
            </Array>
          </mxGeometry>
        </mxCell>
        <mxCell id="D74TR6SnFDzBrUBwtWsB-136" value="&lt;b&gt;&lt;font style=&quot;font-size: 14px;&quot;&gt;Left Control Store&lt;/font&gt;&lt;br&gt;&lt;/b&gt;&lt;br&gt;128x17" style="rounded=0;whiteSpace=wrap;html=1;fillColor=#ffcd28;gradientColor=#ffa500;strokeColor=#d79b00;" vertex="1" parent="1">
          <mxGeometry x="41" y="860" width="100" height="100" as="geometry" />
        </mxCell>
        <mxCell id="D74TR6SnFDzBrUBwtWsB-137" style="edgeStyle=orthogonalEdgeStyle;rounded=0;orthogonalLoop=1;jettySize=auto;html=1;exitX=1;exitY=0.25;exitDx=0;exitDy=0;entryX=0.5;entryY=0;entryDx=0;entryDy=0;fontSize=14;" edge="1" parent="1" source="D74TR6SnFDzBrUBwtWsB-141" target="D74TR6SnFDzBrUBwtWsB-148">
          <mxGeometry relative="1" as="geometry" />
        </mxCell>
        <mxCell id="D74TR6SnFDzBrUBwtWsB-138" style="edgeStyle=orthogonalEdgeStyle;rounded=0;orthogonalLoop=1;jettySize=auto;html=1;entryX=0.5;entryY=0;entryDx=0;entryDy=0;fontSize=14;" edge="1" parent="1" source="D74TR6SnFDzBrUBwtWsB-141" target="D74TR6SnFDzBrUBwtWsB-147">
          <mxGeometry relative="1" as="geometry">
            <Array as="points">
              <mxPoint x="321" y="915" />
              <mxPoint x="321" y="915" />
            </Array>
          </mxGeometry>
        </mxCell>
        <mxCell id="D74TR6SnFDzBrUBwtWsB-139" style="edgeStyle=orthogonalEdgeStyle;rounded=0;orthogonalLoop=1;jettySize=auto;html=1;entryX=0.5;entryY=0;entryDx=0;entryDy=0;fontSize=14;" edge="1" parent="1" source="D74TR6SnFDzBrUBwtWsB-141" target="D74TR6SnFDzBrUBwtWsB-146">
          <mxGeometry relative="1" as="geometry">
            <Array as="points">
              <mxPoint x="321" y="945" />
              <mxPoint x="321" y="945" />
            </Array>
          </mxGeometry>
        </mxCell>
        <mxCell id="D74TR6SnFDzBrUBwtWsB-140" value="8b" style="edgeStyle=orthogonalEdgeStyle;rounded=0;orthogonalLoop=1;jettySize=auto;html=1;exitX=0.5;exitY=1;exitDx=0;exitDy=0;entryX=0.5;entryY=1;entryDx=0;entryDy=0;fontSize=12;endArrow=classic;endFill=1;shape=flexArrow;" edge="1" parent="1" source="D74TR6SnFDzBrUBwtWsB-141" target="D74TR6SnFDzBrUBwtWsB-152">
          <mxGeometry relative="1" as="geometry" />
        </mxCell>
        <mxCell id="D74TR6SnFDzBrUBwtWsB-141" value="&lt;font style=&quot;font-size: 14px;&quot;&gt;Right Control Store&lt;/font&gt;&lt;br&gt;&lt;span style=&quot;font-weight: normal;&quot;&gt;&lt;br&gt;128x32&lt;/span&gt;" style="rounded=0;whiteSpace=wrap;html=1;fontStyle=1;fillColor=#ffcd28;gradientColor=#ffa500;strokeColor=#d79b00;" vertex="1" parent="1">
          <mxGeometry x="211" y="860" width="100" height="100" as="geometry" />
        </mxCell>
        <mxCell id="D74TR6SnFDzBrUBwtWsB-142" value="3b" style="edgeStyle=orthogonalEdgeStyle;rounded=0;orthogonalLoop=1;jettySize=auto;html=1;fontSize=14;endArrow=classic;endFill=1;" edge="1" parent="1" source="D74TR6SnFDzBrUBwtWsB-143" target="D74TR6SnFDzBrUBwtWsB-162">
          <mxGeometry x="0.3115" relative="1" as="geometry">
            <mxPoint x="348.5" y="1049" as="targetPoint" />
            <Array as="points">
              <mxPoint x="370" y="980" />
              <mxPoint x="349" y="980" />
            </Array>
            <mxPoint as="offset" />
          </mxGeometry>
        </mxCell>
        <mxCell id="D74TR6SnFDzBrUBwtWsB-143" value="&lt;font style=&quot;font-size: 14px;&quot;&gt;Input Stack&lt;/font&gt;&lt;br&gt;&lt;span style=&quot;font-weight: normal;&quot;&gt;&lt;br&gt;128x1&lt;/span&gt;" style="rounded=0;whiteSpace=wrap;html=1;fontStyle=1;fillColor=#fff2cc;gradientColor=#ffd966;strokeColor=#d6b656;" vertex="1" parent="1">
          <mxGeometry x="346" y="860" width="59" height="100" as="geometry" />
        </mxCell>
        <mxCell id="D74TR6SnFDzBrUBwtWsB-144" value="3b" style="edgeStyle=orthogonalEdgeStyle;rounded=0;orthogonalLoop=1;jettySize=auto;html=1;fontSize=14;endArrow=classic;endFill=1;" edge="1" parent="1" source="D74TR6SnFDzBrUBwtWsB-145" target="D74TR6SnFDzBrUBwtWsB-162">
          <mxGeometry x="0.3333" relative="1" as="geometry">
            <mxPoint x="363.5" y="1049" as="targetPoint" />
            <Array as="points">
              <mxPoint x="430" y="990" />
              <mxPoint x="380" y="990" />
            </Array>
            <mxPoint as="offset" />
          </mxGeometry>
        </mxCell>
        <mxCell id="D74TR6SnFDzBrUBwtWsB-145" value="&lt;font style=&quot;font-size: 14px;&quot;&gt;Data Stack&lt;/font&gt;&lt;br&gt;&lt;span style=&quot;font-weight: normal;&quot;&gt;&lt;br&gt;128x1&lt;/span&gt;" style="rounded=0;whiteSpace=wrap;html=1;fontStyle=1;fillColor=#fff2cc;gradientColor=#ffd966;strokeColor=#d6b656;" vertex="1" parent="1">
          <mxGeometry x="405" y="860" width="60" height="100" as="geometry" />
        </mxCell>
        <mxCell id="D74TR6SnFDzBrUBwtWsB-146" value="" style="shape=trapezoid;perimeter=trapezoidPerimeter;whiteSpace=wrap;html=1;fixedSize=1;fontSize=14;size=10;direction=north;fillColor=#fff2cc;gradientColor=#ffd966;strokeColor=#d6b656;" vertex="1" parent="1">
          <mxGeometry x="336" y="930" width="10" height="30" as="geometry" />
        </mxCell>
        <mxCell id="D74TR6SnFDzBrUBwtWsB-147" value="" style="shape=trapezoid;perimeter=trapezoidPerimeter;whiteSpace=wrap;html=1;fixedSize=1;fontSize=14;size=10;direction=north;fillColor=#fff2cc;gradientColor=#ffd966;strokeColor=#d6b656;" vertex="1" parent="1">
          <mxGeometry x="336" y="900" width="10" height="30" as="geometry" />
        </mxCell>
        <mxCell id="D74TR6SnFDzBrUBwtWsB-148" value="" style="shape=trapezoid;perimeter=trapezoidPerimeter;whiteSpace=wrap;html=1;fixedSize=1;fontSize=14;size=10;direction=north;fillColor=#fff2cc;gradientColor=#ffd966;strokeColor=#d6b656;" vertex="1" parent="1">
          <mxGeometry x="336" y="870" width="10" height="30" as="geometry" />
        </mxCell>
        <mxCell id="D74TR6SnFDzBrUBwtWsB-149" style="edgeStyle=orthogonalEdgeStyle;rounded=0;orthogonalLoop=1;jettySize=auto;html=1;exitDx=0;exitDy=0;fontSize=12;endArrow=classic;endFill=1;startArrow=none;" edge="1" parent="1" source="D74TR6SnFDzBrUBwtWsB-188" target="D74TR6SnFDzBrUBwtWsB-136">
          <mxGeometry relative="1" as="geometry" />
        </mxCell>
        <mxCell id="D74TR6SnFDzBrUBwtWsB-150" value="Sequencer" style="rounded=0;whiteSpace=wrap;html=1;dashed=1;fillColor=#f5f5f5;strokeColor=#666666;gradientColor=#b3b3b3;" vertex="1" parent="1">
          <mxGeometry x="-80" y="790" width="80" height="40" as="geometry" />
        </mxCell>
        <mxCell id="D74TR6SnFDzBrUBwtWsB-151" style="edgeStyle=orthogonalEdgeStyle;rounded=0;orthogonalLoop=1;jettySize=auto;html=1;exitDx=0;exitDy=0;fontSize=14;endArrow=classic;endFill=1;startArrow=none;" edge="1" parent="1" source="D74TR6SnFDzBrUBwtWsB-173" target="D74TR6SnFDzBrUBwtWsB-145">
          <mxGeometry relative="1" as="geometry">
            <mxPoint x="500" y="980" as="targetPoint" />
            <Array as="points">
              <mxPoint x="450" y="1030" />
              <mxPoint x="450" y="1030" />
            </Array>
          </mxGeometry>
        </mxCell>
        <mxCell id="D74TR6SnFDzBrUBwtWsB-152" value="LUT" style="shape=trapezoid;perimeter=trapezoidPerimeter;whiteSpace=wrap;html=1;fixedSize=1;fontSize=14;size=15;direction=south;fillColor=#f8cecc;gradientColor=#ea6b66;strokeColor=#b85450;fontStyle=1" vertex="1" parent="1">
          <mxGeometry x="340" y="1035" width="50" height="60" as="geometry" />
        </mxCell>
        <mxCell id="D74TR6SnFDzBrUBwtWsB-153" value="Logic Element" style="text;html=1;strokeColor=none;fillColor=none;align=center;verticalAlign=middle;whiteSpace=wrap;rounded=0;fontSize=14;fontStyle=1" vertex="1" parent="1">
          <mxGeometry x="269" y="1005" width="61" height="35" as="geometry" />
        </mxCell>
        <mxCell id="D74TR6SnFDzBrUBwtWsB-154" style="edgeStyle=orthogonalEdgeStyle;rounded=0;orthogonalLoop=1;jettySize=auto;html=1;exitX=1;exitY=0.25;exitDx=0;exitDy=0;fontSize=12;endArrow=classic;endFill=1;entryX=0;entryY=0.25;entryDx=0;entryDy=0;" edge="1" parent="1" source="D74TR6SnFDzBrUBwtWsB-158" target="D74TR6SnFDzBrUBwtWsB-182">
          <mxGeometry relative="1" as="geometry">
            <mxPoint x="510" y="1145.5" as="targetPoint" />
          </mxGeometry>
        </mxCell>
        <mxCell id="D74TR6SnFDzBrUBwtWsB-155" value="Node Bit Out" style="edgeStyle=orthogonalEdgeStyle;rounded=0;orthogonalLoop=1;jettySize=auto;html=1;fontSize=12;endArrow=classic;endFill=1;" edge="1" parent="1" source="D74TR6SnFDzBrUBwtWsB-158" target="D74TR6SnFDzBrUBwtWsB-168">
          <mxGeometry relative="1" as="geometry">
            <Array as="points">
              <mxPoint x="245" y="1230" />
              <mxPoint x="245" y="1230" />
            </Array>
          </mxGeometry>
        </mxCell>
        <mxCell id="D74TR6SnFDzBrUBwtWsB-156" style="edgeStyle=orthogonalEdgeStyle;rounded=0;orthogonalLoop=1;jettySize=auto;html=1;exitX=1;exitY=0.75;exitDx=0;exitDy=0;fontSize=12;endArrow=classic;endFill=1;entryX=0;entryY=0.75;entryDx=0;entryDy=0;" edge="1" parent="1" source="D74TR6SnFDzBrUBwtWsB-158" target="D74TR6SnFDzBrUBwtWsB-182">
          <mxGeometry relative="1" as="geometry">
            <mxPoint x="510" y="1190.2142857142856" as="targetPoint" />
          </mxGeometry>
        </mxCell>
        <mxCell id="D74TR6SnFDzBrUBwtWsB-157" style="edgeStyle=orthogonalEdgeStyle;rounded=0;orthogonalLoop=1;jettySize=auto;html=1;fontSize=12;endArrow=classic;endFill=1;" edge="1" parent="1" source="D74TR6SnFDzBrUBwtWsB-158" target="D74TR6SnFDzBrUBwtWsB-199">
          <mxGeometry relative="1" as="geometry">
            <Array as="points">
              <mxPoint x="140" y="1100" />
              <mxPoint x="-40" y="1100" />
            </Array>
          </mxGeometry>
        </mxCell>
        <mxCell id="D74TR6SnFDzBrUBwtWsB-158" value="" style="rounded=0;whiteSpace=wrap;html=1;fillColor=#fff2cc;gradientColor=#ffd966;strokeColor=#d6b656;verticalAlign=middle;" vertex="1" parent="1">
          <mxGeometry x="115" y="1122.5" width="230" height="90" as="geometry" />
        </mxCell>
        <mxCell id="D74TR6SnFDzBrUBwtWsB-159" value="" style="verticalLabelPosition=bottom;verticalAlign=top;html=1;shape=mxgraph.basic.layered_rect;dx=10;outlineConnect=0;fontSize=14;fillColor=#fff2cc;gradientColor=#ffd966;strokeColor=#d6b656;" vertex="1" parent="1">
          <mxGeometry x="255.25" y="1157.5" width="79" height="40" as="geometry" />
        </mxCell>
        <mxCell id="D74TR6SnFDzBrUBwtWsB-160" value="latchs" style="text;strokeColor=none;fillColor=none;html=1;fontSize=12;fontStyle=0;verticalAlign=middle;align=center;" vertex="1" parent="1">
          <mxGeometry x="255.25" y="1157.5" width="70" height="30" as="geometry" />
        </mxCell>
        <mxCell id="D74TR6SnFDzBrUBwtWsB-161" style="edgeStyle=orthogonalEdgeStyle;rounded=0;orthogonalLoop=1;jettySize=auto;html=1;fontSize=12;endArrow=classic;endFill=1;exitX=0.5;exitY=0;exitDx=0;exitDy=0;" edge="1" parent="1" source="D74TR6SnFDzBrUBwtWsB-162" target="D74TR6SnFDzBrUBwtWsB-152">
          <mxGeometry relative="1" as="geometry">
            <Array as="points" />
          </mxGeometry>
        </mxCell>
        <mxCell id="D74TR6SnFDzBrUBwtWsB-162" value="MUX x3" style="shape=trapezoid;perimeter=trapezoidPerimeter;whiteSpace=wrap;html=1;fixedSize=1;fontSize=12;size=10;direction=west;fillColor=#fad7ac;strokeColor=#b46504;" vertex="1" parent="1">
          <mxGeometry x="340" y="1000" width="50" height="20" as="geometry" />
        </mxCell>
        <mxCell id="D74TR6SnFDzBrUBwtWsB-163" value="MUX" style="shadow=0;dashed=0;align=center;html=1;strokeWidth=1;shape=mxgraph.electrical.abstract.mux2;flipV=0;direction=east;flipH=0;fillColor=#ffe6cc;strokeColor=#d79b00;" vertex="1" parent="1">
          <mxGeometry x="127.75" y="1150" width="40" height="55" as="geometry" />
        </mxCell>
        <mxCell id="D74TR6SnFDzBrUBwtWsB-164" value="MUX" style="shadow=0;dashed=0;align=center;html=1;strokeWidth=1;shape=mxgraph.electrical.abstract.mux2;flipV=0;direction=east;flipH=0;fillColor=#ffe6cc;strokeColor=#d79b00;" vertex="1" parent="1">
          <mxGeometry x="205.5" y="1150" width="40" height="55" as="geometry" />
        </mxCell>
        <mxCell id="D74TR6SnFDzBrUBwtWsB-165" value="MUX" style="shadow=0;dashed=0;align=center;html=1;strokeWidth=1;shape=mxgraph.electrical.abstract.mux2;flipV=0;direction=east;flipH=0;fillColor=#ffe6cc;strokeColor=#d79b00;" vertex="1" parent="1">
          <mxGeometry x="167.75" y="1150" width="40" height="55" as="geometry" />
        </mxCell>
        <mxCell id="D74TR6SnFDzBrUBwtWsB-166" value="Data Flow Controls" style="text;html=1;strokeColor=none;fillColor=none;align=center;verticalAlign=middle;whiteSpace=wrap;rounded=0;fontSize=14;fontStyle=1" vertex="1" parent="1">
          <mxGeometry x="151" y="1122.5" width="160" height="30" as="geometry" />
        </mxCell>
        <mxCell id="D74TR6SnFDzBrUBwtWsB-167" style="edgeStyle=orthogonalEdgeStyle;rounded=0;orthogonalLoop=1;jettySize=auto;html=1;fontSize=12;endArrow=classic;endFill=1;" edge="1" parent="1" source="D74TR6SnFDzBrUBwtWsB-168" target="D74TR6SnFDzBrUBwtWsB-143">
          <mxGeometry relative="1" as="geometry">
            <Array as="points">
              <mxPoint x="420" y="1280" />
              <mxPoint x="420" y="970" />
              <mxPoint x="390" y="970" />
            </Array>
          </mxGeometry>
        </mxCell>
        <mxCell id="D74TR6SnFDzBrUBwtWsB-168" value="" style="rounded=0;whiteSpace=wrap;html=1;fillColor=#f5f5f5;strokeColor=#666666;verticalAlign=middle;dashed=1;gradientColor=#b3b3b3;" vertex="1" parent="1">
          <mxGeometry x="90" y="1260" width="310" height="100" as="geometry" />
        </mxCell>
        <mxCell id="D74TR6SnFDzBrUBwtWsB-169" value="MUX" style="shadow=0;dashed=0;align=center;html=1;strokeWidth=1;shape=mxgraph.electrical.abstract.mux2;flipV=0;direction=east;flipH=0;fillColor=#fad9d5;strokeColor=#ae4132;" vertex="1" parent="1">
          <mxGeometry x="141" y="1290" width="40" height="55" as="geometry" />
        </mxCell>
        <mxCell id="D74TR6SnFDzBrUBwtWsB-170" value="MUX" style="shadow=0;dashed=0;align=center;html=1;strokeWidth=1;shape=mxgraph.electrical.abstract.mux2;flipV=0;direction=east;flipH=0;fillColor=#fad9d5;strokeColor=#ae4132;" vertex="1" parent="1">
          <mxGeometry x="258.75" y="1290" width="40" height="55" as="geometry" />
        </mxCell>
        <mxCell id="D74TR6SnFDzBrUBwtWsB-171" value="MUX" style="shadow=0;dashed=0;align=center;html=1;strokeWidth=1;shape=mxgraph.electrical.abstract.mux2;flipV=0;direction=east;flipH=0;fillColor=#fad9d5;strokeColor=#ae4132;" vertex="1" parent="1">
          <mxGeometry x="200" y="1290" width="40" height="55" as="geometry" />
        </mxCell>
        <mxCell id="D74TR6SnFDzBrUBwtWsB-172" value="Inter-Connection Network" style="text;html=1;strokeColor=none;fillColor=none;align=center;verticalAlign=middle;whiteSpace=wrap;rounded=0;fontSize=18;fontStyle=1;fontColor=#7F00FF;" vertex="1" parent="1">
          <mxGeometry x="90" y="1260" width="310" height="30" as="geometry" />
        </mxCell>
        <mxCell id="D74TR6SnFDzBrUBwtWsB-173" value="" style="shape=waypoint;sketch=0;fillStyle=solid;size=6;pointerEvents=1;points=[];fillColor=none;resizable=0;rotatable=0;perimeter=centerPerimeter;snapToPoint=1;fontSize=12;" vertex="1" parent="1">
          <mxGeometry x="430" y="1045" width="40" height="40" as="geometry" />
        </mxCell>
        <mxCell id="D74TR6SnFDzBrUBwtWsB-174" value="" style="edgeStyle=orthogonalEdgeStyle;rounded=0;orthogonalLoop=1;jettySize=auto;html=1;exitX=0.5;exitY=0;exitDx=0;exitDy=0;fontSize=14;endArrow=none;endFill=1;entryDx=0;entryDy=0;" edge="1" parent="1" source="D74TR6SnFDzBrUBwtWsB-152" target="D74TR6SnFDzBrUBwtWsB-173">
          <mxGeometry relative="1" as="geometry">
            <mxPoint x="390" y="1065" as="sourcePoint" />
            <mxPoint x="490" y="930" as="targetPoint" />
          </mxGeometry>
        </mxCell>
        <mxCell id="D74TR6SnFDzBrUBwtWsB-175" value="Node Address" style="text;html=1;strokeColor=none;fillColor=none;align=center;verticalAlign=middle;whiteSpace=wrap;rounded=0;fontSize=12;" vertex="1" parent="1">
          <mxGeometry x="-20" y="1250" width="80" height="30" as="geometry" />
        </mxCell>
        <mxCell id="D74TR6SnFDzBrUBwtWsB-176" value="MUX" style="shadow=0;dashed=0;align=center;html=1;strokeWidth=1;shape=mxgraph.electrical.abstract.mux2;flipV=0;direction=east;flipH=0;fillColor=#fad9d5;strokeColor=#ae4132;" vertex="1" parent="1">
          <mxGeometry x="322.5" y="1290" width="40" height="55" as="geometry" />
        </mxCell>
        <mxCell id="D74TR6SnFDzBrUBwtWsB-177" value="Node Bit In" style="text;html=1;strokeColor=none;fillColor=none;align=center;verticalAlign=middle;whiteSpace=wrap;rounded=0;fontSize=12;" vertex="1" parent="1">
          <mxGeometry x="420" y="1250" width="80" height="30" as="geometry" />
        </mxCell>
        <mxCell id="D74TR6SnFDzBrUBwtWsB-178" value="Function Bit Out" style="text;html=1;strokeColor=none;fillColor=none;align=center;verticalAlign=middle;whiteSpace=wrap;rounded=0;fontSize=12;" vertex="1" parent="1">
          <mxGeometry x="450" y="1050" width="60" height="30" as="geometry" />
        </mxCell>
        <mxCell id="D74TR6SnFDzBrUBwtWsB-179" style="edgeStyle=orthogonalEdgeStyle;rounded=0;orthogonalLoop=1;jettySize=auto;html=1;fontSize=12;endArrow=classic;endFill=1;entryX=0;entryY=0.25;entryDx=0;entryDy=0;exitX=1;exitY=0.25;exitDx=0;exitDy=0;" edge="1" parent="1" source="D74TR6SnFDzBrUBwtWsB-181" target="D74TR6SnFDzBrUBwtWsB-158">
          <mxGeometry relative="1" as="geometry">
            <mxPoint x="520" y="1155.5" as="targetPoint" />
            <mxPoint x="-20" y="1145.5" as="sourcePoint" />
          </mxGeometry>
        </mxCell>
        <mxCell id="D74TR6SnFDzBrUBwtWsB-180" style="edgeStyle=orthogonalEdgeStyle;rounded=0;orthogonalLoop=1;jettySize=auto;html=1;fontSize=12;endArrow=classic;endFill=1;entryX=0;entryY=0.75;entryDx=0;entryDy=0;exitX=1;exitY=0.75;exitDx=0;exitDy=0;" edge="1" parent="1" source="D74TR6SnFDzBrUBwtWsB-181" target="D74TR6SnFDzBrUBwtWsB-158">
          <mxGeometry relative="1" as="geometry">
            <mxPoint x="125" y="1155" as="targetPoint" />
            <mxPoint x="-20" y="1192.5" as="sourcePoint" />
          </mxGeometry>
        </mxCell>
        <mxCell id="D74TR6SnFDzBrUBwtWsB-181" value="" style="rounded=0;whiteSpace=wrap;html=1;verticalAlign=middle;strokeColor=none;" vertex="1" parent="1">
          <mxGeometry x="-70" y="1122.5" width="20" height="90" as="geometry" />
        </mxCell>
        <mxCell id="D74TR6SnFDzBrUBwtWsB-182" value="" style="rounded=0;whiteSpace=wrap;html=1;verticalAlign=middle;strokeColor=none;" vertex="1" parent="1">
          <mxGeometry x="540" y="1122.5" width="20" height="90" as="geometry" />
        </mxCell>
        <mxCell id="D74TR6SnFDzBrUBwtWsB-183" value="External Bit Out" style="text;html=1;strokeColor=none;fillColor=default;align=center;verticalAlign=middle;whiteSpace=wrap;rounded=0;fontSize=12;" vertex="1" parent="1">
          <mxGeometry x="430" y="1166.25" width="100" height="22.5" as="geometry" />
        </mxCell>
        <mxCell id="D74TR6SnFDzBrUBwtWsB-184" value="Module Bit Out" style="text;html=1;strokeColor=none;fillColor=default;align=center;verticalAlign=middle;whiteSpace=wrap;rounded=0;fontSize=12;" vertex="1" parent="1">
          <mxGeometry x="430" y="1122.5" width="100" height="20" as="geometry" />
        </mxCell>
        <mxCell id="D74TR6SnFDzBrUBwtWsB-185" value="Module Bit In" style="text;html=1;strokeColor=none;fillColor=default;align=center;verticalAlign=middle;whiteSpace=wrap;rounded=0;fontSize=12;" vertex="1" parent="1">
          <mxGeometry x="-40" y="1122.5" width="90" height="20" as="geometry" />
        </mxCell>
        <mxCell id="D74TR6SnFDzBrUBwtWsB-186" value="External Bit In" style="text;html=1;strokeColor=none;fillColor=default;align=center;verticalAlign=middle;whiteSpace=wrap;rounded=0;fontSize=12;" vertex="1" parent="1">
          <mxGeometry x="-40" y="1170" width="90" height="18.75" as="geometry" />
        </mxCell>
        <mxCell id="D74TR6SnFDzBrUBwtWsB-187" style="edgeStyle=orthogonalEdgeStyle;rounded=0;orthogonalLoop=1;jettySize=auto;html=1;fontSize=12;endArrow=classic;endFill=1;startArrow=none;" edge="1" parent="1" source="D74TR6SnFDzBrUBwtWsB-192" target="D74TR6SnFDzBrUBwtWsB-198">
          <mxGeometry relative="1" as="geometry">
            <Array as="points">
              <mxPoint x="178" y="850" />
              <mxPoint x="178" y="850" />
            </Array>
          </mxGeometry>
        </mxCell>
        <mxCell id="D74TR6SnFDzBrUBwtWsB-188" value="" style="shape=waypoint;sketch=0;fillStyle=solid;size=6;pointerEvents=1;points=[];fillColor=none;resizable=0;rotatable=0;perimeter=centerPerimeter;snapToPoint=1;fontSize=12;" vertex="1" parent="1">
          <mxGeometry x="71" y="790" width="40" height="40" as="geometry" />
        </mxCell>
        <mxCell id="D74TR6SnFDzBrUBwtWsB-189" value="" style="edgeStyle=orthogonalEdgeStyle;rounded=0;orthogonalLoop=1;jettySize=auto;html=1;exitX=1;exitY=0.5;exitDx=0;exitDy=0;fontSize=12;endArrow=none;endFill=1;" edge="1" parent="1" source="D74TR6SnFDzBrUBwtWsB-150" target="D74TR6SnFDzBrUBwtWsB-188">
          <mxGeometry relative="1" as="geometry">
            <mxPoint x="-70" y="805" as="sourcePoint" />
            <mxPoint x="91" y="860" as="targetPoint" />
          </mxGeometry>
        </mxCell>
        <mxCell id="D74TR6SnFDzBrUBwtWsB-190" style="edgeStyle=orthogonalEdgeStyle;rounded=0;orthogonalLoop=1;jettySize=auto;html=1;fontSize=12;endArrow=classic;endFill=1;startArrow=none;" edge="1" parent="1" source="D74TR6SnFDzBrUBwtWsB-195" target="D74TR6SnFDzBrUBwtWsB-143">
          <mxGeometry relative="1" as="geometry" />
        </mxCell>
        <mxCell id="D74TR6SnFDzBrUBwtWsB-191" style="edgeStyle=orthogonalEdgeStyle;rounded=0;orthogonalLoop=1;jettySize=auto;html=1;fontSize=12;endArrow=classic;endFill=1;" edge="1" parent="1" source="D74TR6SnFDzBrUBwtWsB-199" target="D74TR6SnFDzBrUBwtWsB-198">
          <mxGeometry relative="1" as="geometry">
            <mxPoint x="250" y="840" as="sourcePoint" />
            <Array as="points">
              <mxPoint x="-40" y="850" />
              <mxPoint x="190" y="850" />
            </Array>
          </mxGeometry>
        </mxCell>
        <mxCell id="D74TR6SnFDzBrUBwtWsB-192" value="" style="shape=waypoint;sketch=0;fillStyle=solid;size=6;pointerEvents=1;points=[];fillColor=none;resizable=0;rotatable=0;perimeter=centerPerimeter;snapToPoint=1;fontSize=12;" vertex="1" parent="1">
          <mxGeometry x="157.75" y="790" width="40" height="40" as="geometry" />
        </mxCell>
        <mxCell id="D74TR6SnFDzBrUBwtWsB-193" value="" style="edgeStyle=orthogonalEdgeStyle;rounded=0;orthogonalLoop=1;jettySize=auto;html=1;fontSize=12;endArrow=none;endFill=1;" edge="1" parent="1" source="D74TR6SnFDzBrUBwtWsB-188" target="D74TR6SnFDzBrUBwtWsB-192">
          <mxGeometry relative="1" as="geometry">
            <mxPoint x="91" y="805" as="sourcePoint" />
            <mxPoint x="251" y="860" as="targetPoint" />
          </mxGeometry>
        </mxCell>
        <mxCell id="D74TR6SnFDzBrUBwtWsB-194" style="edgeStyle=orthogonalEdgeStyle;rounded=0;orthogonalLoop=1;jettySize=auto;html=1;fontSize=12;endArrow=classic;endFill=1;" edge="1" parent="1" source="D74TR6SnFDzBrUBwtWsB-195" target="D74TR6SnFDzBrUBwtWsB-145">
          <mxGeometry relative="1" as="geometry" />
        </mxCell>
        <mxCell id="D74TR6SnFDzBrUBwtWsB-195" value="" style="shape=waypoint;sketch=0;fillStyle=solid;size=6;pointerEvents=1;points=[];fillColor=none;resizable=0;rotatable=0;perimeter=centerPerimeter;snapToPoint=1;fontSize=12;" vertex="1" parent="1">
          <mxGeometry x="355.5" y="790" width="40" height="40" as="geometry" />
        </mxCell>
        <mxCell id="D74TR6SnFDzBrUBwtWsB-196" value="" style="edgeStyle=orthogonalEdgeStyle;rounded=0;orthogonalLoop=1;jettySize=auto;html=1;fontSize=12;endArrow=none;endFill=1;" edge="1" parent="1" source="D74TR6SnFDzBrUBwtWsB-192" target="D74TR6SnFDzBrUBwtWsB-195">
          <mxGeometry relative="1" as="geometry">
            <mxPoint x="251" y="805" as="sourcePoint" />
            <mxPoint x="400.5" y="860" as="targetPoint" />
          </mxGeometry>
        </mxCell>
        <mxCell id="D74TR6SnFDzBrUBwtWsB-197" style="edgeStyle=orthogonalEdgeStyle;rounded=0;orthogonalLoop=1;jettySize=auto;html=1;fontSize=12;endArrow=classic;endFill=1;" edge="1" parent="1" source="D74TR6SnFDzBrUBwtWsB-198" target="D74TR6SnFDzBrUBwtWsB-141">
          <mxGeometry relative="1" as="geometry">
            <Array as="points">
              <mxPoint x="183" y="910" />
            </Array>
          </mxGeometry>
        </mxCell>
        <mxCell id="D74TR6SnFDzBrUBwtWsB-198" value="" style="shape=trapezoid;perimeter=trapezoidPerimeter;whiteSpace=wrap;html=1;fixedSize=1;fontSize=14;size=10;direction=west;fillColor=#fff2cc;gradientColor=#ffd966;strokeColor=#d6b656;" vertex="1" parent="1">
          <mxGeometry x="167.75" y="870" width="30" height="10" as="geometry" />
        </mxCell>
        <mxCell id="D74TR6SnFDzBrUBwtWsB-199" value="MemAddrReg" style="rounded=0;whiteSpace=wrap;html=1;dashed=1;fillColor=#f5f5f5;gradientColor=#b3b3b3;strokeColor=#666666;" vertex="1" parent="1">
          <mxGeometry x="-80" y="1020" width="80" height="30" as="geometry" />
        </mxCell>
        <mxCell id="D74TR6SnFDzBrUBwtWsB-200" value="Emulation Processor" style="text;html=1;strokeColor=none;fillColor=none;align=center;verticalAlign=middle;whiteSpace=wrap;rounded=0;fontSize=18;fontStyle=1;fontColor=#7F00FF;" vertex="1" parent="1">
          <mxGeometry x="111" y="985" width="119.75" height="55" as="geometry" />
        </mxCell>
      </root>
    </mxGraphModel>
  </diagram>
</mxfile>
